<svg width="150" height="150" viewBox="0 0 150 150" fill="none" xmlns="http://www.w3.org/2000/svg">
<g clip-path="url(#clip0)">
<path d="M94.2472 47.9552C92.7627 46.4826 91.0026 45.3171 89.0673 44.5253C87.1321 43.7335 85.0597 43.3311 82.9688 43.3409H82.7213C78.612 43.4638 74.7018 45.1388 71.7778 48.0288C68.8538 50.9188 67.1332 54.8091 66.9623 58.9167C66.9189 61.4536 67.4842 63.9639 68.611 66.2372C69.7378 68.5105 71.3931 70.4806 73.4382 71.9823C75.9832 73.9289 77.6943 76.769 78.2258 79.9287H87.7366C88.2879 76.7482 90.0188 73.8927 92.5836 71.9328C94.2531 70.7006 95.6636 69.1515 96.7343 67.3741C97.8051 65.5967 98.5153 63.6258 98.8242 61.5739C99.1332 59.522 99.0349 57.4293 98.535 55.4154C98.0351 53.4015 97.1433 51.5058 95.9107 49.8366C95.4063 49.1668 94.8501 48.5378 94.2472 47.9552Z" fill="#9E9E9E"/>
<path d="M74.9984 -5.01438e-06C60.1649 0.0029325 45.6654 4.40425 33.3333 12.6474C21.0012 20.8906 11.3902 32.6054 5.71574 46.3106C0.0412548 60.0157 -1.44193 75.0958 1.45374 89.6438C4.3494 104.192 11.4939 117.555 21.9837 128.042C32.4736 138.53 45.8378 145.672 60.3865 148.565C74.9351 151.458 90.0148 149.972 103.719 144.294C117.423 138.617 129.136 129.004 137.377 116.67C145.617 104.336 150.016 89.8359 150.016 75.0025C150.016 65.1516 148.076 55.397 144.306 46.2961C140.536 37.1951 135.011 28.926 128.044 21.961C121.078 14.9961 112.808 9.47175 103.706 5.70363C94.6042 1.93551 84.8493 -0.00260628 74.9984 -5.01438e-06ZM114.369 85.2807C110.297 91.035 108.114 97.9119 108.12 104.961V127.938C108.119 128.544 107.878 129.125 107.449 129.553C107.02 129.981 106.439 130.221 105.833 130.221H64.6756C64.3755 130.221 64.0781 130.163 63.8006 130.049C63.5232 129.934 63.271 129.766 63.0585 129.554C62.846 129.342 62.6775 129.09 62.5624 128.813C62.4474 128.536 62.3882 128.239 62.3882 127.938V112.739L51.3475 116.091C50.4847 116.388 49.5766 116.532 48.6641 116.516C46.2392 116.515 43.9141 115.551 42.1994 113.837C40.4848 112.122 39.521 109.797 39.5196 107.372V93.6479H30.3801C29.1829 93.6624 28.0289 93.2014 27.1712 92.366C26.3136 91.5307 25.8224 90.3891 25.8054 89.192V89.088C25.8108 88.2216 26.0596 87.3741 26.5233 86.6422L37.2075 69.6851C38.7221 67.286 39.5255 64.5067 39.5246 61.6695C39.519 55.2012 41.0381 48.8227 43.9586 43.0512C46.879 37.2798 51.1187 32.278 56.3336 28.4514C61.5486 24.6248 67.5921 22.0812 73.9738 21.027C80.3556 19.9727 86.896 20.4374 93.0646 22.3834C99.2332 24.3295 104.856 27.702 109.478 32.2275C114.099 36.753 117.589 42.3041 119.664 48.4304C121.739 54.5568 122.341 61.0861 121.421 67.4886C120.501 73.8911 118.085 79.9866 114.369 85.2807Z" fill="#9E9E9E"/>
<path d="M101.703 31.6863C96.2225 27.836 89.7898 25.5644 83.1067 25.1194C76.4235 24.6744 69.7464 26.0729 63.8036 29.1626C57.8608 32.2522 52.8805 36.9143 49.4057 42.6404C45.9309 48.3665 44.0951 54.9368 44.0984 61.6348C44.1078 65.3378 43.0656 68.9673 41.0932 72.1012L30.3892 89.0633H41.8111C42.111 89.0626 42.4081 89.1212 42.6853 89.2357C42.9625 89.3501 43.2144 89.5182 43.4264 89.7303C43.6385 89.9424 43.8066 90.1942 43.9211 90.4715C44.0355 90.7487 44.0941 91.0457 44.0935 91.3457V107.352C44.0948 108.564 44.5765 109.726 45.4331 110.584C46.2897 111.441 47.4512 111.924 48.6632 111.927C49.0851 111.934 49.5051 111.87 49.9059 111.739L64.0063 107.446C64.5867 107.271 65.2132 107.332 65.7479 107.618C66.2827 107.904 66.682 108.391 66.8581 108.971C66.9232 109.188 66.9565 109.413 66.9571 109.64V125.646H103.54V104.961C103.531 96.9705 106.002 89.1743 110.61 82.6468C116.186 74.7077 118.38 64.8788 116.71 55.322C115.04 45.7652 109.642 37.2633 101.703 31.6863ZM97.6929 73.5023C96.9474 74.2629 96.1428 74.9632 95.2867 75.5966C94.2832 76.3795 93.4746 77.3841 92.924 78.5316C92.3734 79.6791 92.0959 80.9385 92.1131 82.2111V89.0732C92.1118 90.2856 91.6292 91.4479 90.7714 92.3048C89.9137 93.1616 88.7508 93.6429 87.5384 93.6429H78.3939C76.1907 93.6429 73.8192 91.9546 73.8192 88.2414V82.216C73.849 80.9592 73.5852 79.7128 73.0489 78.5757C72.5126 77.4387 71.7186 76.4423 70.7298 75.6659C68.0944 73.7318 65.9613 71.1937 64.5097 68.2646C63.0581 65.3356 62.3303 62.1011 62.3874 58.8325C62.5468 53.5224 64.7442 48.4774 68.5237 44.744C72.3032 41.0106 77.3747 38.8753 82.6864 38.7811C85.4276 38.7115 88.1542 39.2026 90.6989 40.2243C93.2436 41.2459 95.5528 42.7765 97.4849 44.7222C101.325 48.5143 103.504 53.675 103.543 59.0717C103.582 64.4685 101.478 69.6602 97.6929 73.5073V73.5023Z" fill="#9E9E9E"/>
</g>
<defs>
<clipPath id="clip0">
<rect width="150" height="150" fill="white"/>
</clipPath>
</defs>
</svg>
