<svg width="150" height="150" viewBox="0 0 150 150" fill="none" xmlns="http://www.w3.org/2000/svg">
<path d="M26.5347 97.9208L72.7723 122.03V76.3366L26.5347 53.2178V97.9208Z" fill="#9E9E9E"/>
<path d="M50.792 38.9109L29.2573 49.6535L74.9999 72.5248L96.5345 61.7822L50.792 38.9109Z" fill="#9E9E9E"/>
<path d="M101.436 59.3069L120.743 49.6535L75.0496 26.7822L55.7427 36.4357L101.436 59.3069Z" fill="#9E9E9E"/>
<path d="M103.663 85.9901C103.663 87.2277 102.673 88.2178 101.435 88.2178C100.198 88.2178 99.2077 87.2277 99.2077 85.9901V65.3465L77.2275 76.3366V122.03L123.465 97.8713V53.1683L103.614 63.0693V85.9901H103.663Z" fill="#9E9E9E"/>
<path d="M75 0C33.5644 0 0 33.5644 0 75C0 116.386 33.5644 150 75 150C116.436 150 150 116.436 150 75C150 33.5644 116.436 0 75 0ZM127.871 49.6535V99.2079C127.871 100.049 127.426 100.792 126.683 101.139L76.0396 127.574C75.7426 127.723 75.396 127.822 75 127.822H74.9505C74.9505 127.822 74.9505 127.822 74.901 127.822C74.8515 127.822 74.7525 127.822 74.703 127.822C74.6535 127.822 74.604 127.822 74.505 127.772C74.2574 127.723 74.0594 127.673 73.8614 127.574L23.3168 101.188C22.5743 100.792 22.1287 100.05 22.1287 99.2574V49.6535C22.1287 49.505 22.1287 49.4059 22.1782 49.2574C22.1782 49.2079 22.1782 49.2079 22.1782 49.1584C22.2277 48.9109 22.3267 48.6634 22.4752 48.4158C22.5248 48.3168 22.5743 48.2673 22.6238 48.1683C22.6733 48.1188 22.7723 48.0198 22.8218 47.9703C22.8713 47.9208 22.9208 47.8713 23.0198 47.8218C23.1188 47.7723 23.1683 47.7228 23.2673 47.6733C23.2673 47.6733 23.3168 47.6733 23.3168 47.6238L74.0099 22.2772C74.6535 21.9802 75.3465 21.9802 75.9901 22.2772L126.634 47.6238C126.733 47.6733 126.832 47.7228 126.931 47.8218C127.03 47.8713 127.079 47.9208 127.129 47.9703C127.178 48.0198 127.228 48.0693 127.277 48.1188C127.327 48.1683 127.376 48.2673 127.426 48.3168C127.475 48.3663 127.475 48.4158 127.525 48.4653C127.574 48.5149 127.574 48.5644 127.624 48.6139C127.673 48.6634 127.673 48.7624 127.723 48.8614C127.723 48.9109 127.772 48.9604 127.772 49.0099C127.772 49.0594 127.772 49.0594 127.772 49.1089C127.772 49.2079 127.822 49.2574 127.822 49.3564C127.871 49.5049 127.871 49.5545 127.871 49.6535Z" fill="#9E9E9E"/>
</svg>
