<svg width="150" height="150" viewBox="0 0 150 150" fill="none" xmlns="http://www.w3.org/2000/svg">
<g clip-path="url(#clip0)">
<path d="M85.4785 106.595H64.521V111.699H85.4785V106.595Z" fill="#9E9E9E"/>
<path d="M113.402 40.2812H36.5977V86.1917H113.402V40.2812ZM66.1501 72.4626L62.5507 76.062L49.7326 63.2439L62.5557 50.4258L66.155 54.0301L56.9363 63.2389L66.1501 72.4626ZM74.542 78.6167L69.5415 77.6265L75.4579 47.8661L80.4584 48.8563L74.542 78.6167ZM87.4492 76.057L83.8499 72.4577L93.0785 63.234L83.8647 54.0202L87.4641 50.4159L100.287 63.229L87.4492 76.057Z" fill="#9E9E9E"/>
<path d="M113.402 91.2863H36.5977V101.495H113.402V91.2863Z" fill="#9E9E9E"/>
<path d="M75.0024 6.53699e-07C60.1687 0.00195902 45.6687 4.40244 33.3359 12.645C21.0031 20.8876 11.3914 32.602 5.71618 46.3071C0.0409402 60.0122 -1.44295 75.0924 1.45216 89.6408C4.34726 104.189 11.4913 117.552 21.981 128.041C32.4707 138.529 45.8349 145.671 60.3837 148.565C74.9324 151.458 90.0124 149.972 103.717 144.295C117.421 138.618 129.134 129.004 137.375 116.671C145.616 104.337 150.015 89.8361 150.015 75.0025C150.015 65.1522 148.074 55.3983 144.305 46.298C140.535 37.1976 135.009 28.929 128.044 21.9642C121.078 14.9995 112.808 9.47503 103.708 5.70638C94.6068 1.93774 84.8527 -0.0012998 75.0024 6.53699e-07ZM118.507 106.595H90.6029V111.699H95.7024V116.804H54.3221V111.699H59.4117V106.595H31.4981V35.1817H118.507V106.595Z" fill="#9E9E9E"/>
</g>
<defs>
<clipPath id="clip0">
<rect width="150" height="150" fill="white"/>
</clipPath>
</defs>
</svg>
