<svg width="151" height="150" viewBox="0 0 151 150" fill="none" xmlns="http://www.w3.org/2000/svg">
<g id="Recurso 7 1" clip-path="url(#clip0)">
<g id="Capa 2">
<g id="Capa 1">
<path id="Vector" d="M28.5781 79.1415H34.7981L34.8081 72.9528H28.5781V79.1415Z" fill="#9E9E9E"/>
<path id="Vector_2" d="M80.4814 28.3889H74.2515V34.5727H80.4814V28.3889Z" fill="#9E9E9E"/>
<path id="Vector_3" d="M90.7089 115.779L93.9037 105.456C94.7827 102.582 96.3607 99.9679 98.4982 97.8437C100.636 95.7195 103.267 94.151 106.159 93.2766L116.551 90.1079L70.8677 70.3882L90.7089 115.779Z" fill="#9E9E9E"/>
<path id="Vector_4" d="M75.4973 -5.01443e-06C60.5648 0.00293257 45.9684 4.40437 33.554 12.6478C21.1395 20.8911 11.4645 32.6062 5.75232 46.3117C0.0401517 60.0172 -1.45263 75.0974 1.46275 89.6457C4.37812 104.194 11.5707 117.557 22.131 128.044C32.6913 138.532 46.1451 145.673 60.791 148.565C75.437 151.458 90.6174 149.971 104.413 144.293C118.208 138.615 129.999 129.001 138.294 116.666C146.589 104.332 151.016 89.8312 151.015 74.9975C151.015 65.147 149.061 55.393 145.266 46.2926C141.471 37.1922 135.908 28.9237 128.895 21.9593C121.882 14.9948 113.557 9.47097 104.395 5.70316C95.233 1.93534 85.4135 -0.00260615 75.4973 -5.01443e-06ZM126.444 93.5736L107.963 99.193C106.051 99.771 104.311 100.808 102.898 102.212C101.485 103.616 100.441 105.344 99.8591 107.243L94.1973 125.606C94.0122 126.212 93.6443 126.747 93.1434 127.138C92.6425 127.529 92.0327 127.758 91.3966 127.793C90.7604 127.829 90.1286 127.67 89.5866 127.337C89.0446 127.004 88.6185 126.514 88.366 125.933L63.6653 69.492C57.1143 74.45 49.2481 77.3994 41.033 77.978V82.2359C41.033 83.0565 40.7048 83.8436 40.1207 84.4239C39.5365 85.0042 38.7442 85.3302 37.918 85.3302H25.4581C24.6319 85.3302 23.8396 85.0042 23.2554 84.4239C22.6713 83.8436 22.3431 83.0565 22.3431 82.2359V69.8584C22.3431 69.0377 22.6713 68.2507 23.2554 67.6703C23.8396 67.09 24.6319 66.764 25.4581 66.764H37.918C38.7442 66.764 39.5365 67.09 40.1207 67.6703C40.7048 68.2507 41.033 69.0377 41.033 69.8584V71.7893C49.2427 71.0911 56.9698 67.642 62.9468 62.0078C68.9237 56.3736 72.7956 48.8888 73.9274 40.7813H71.1513C70.3251 40.7813 69.5328 40.4552 68.9487 39.8749C68.3645 39.2946 68.0363 38.5076 68.0363 37.6869V25.3094C68.0363 24.4888 68.3645 23.7017 68.9487 23.1214C69.5328 22.5411 70.3251 22.2151 71.1513 22.2151H83.6113C84.434 22.2164 85.2228 22.5409 85.8054 23.1179C86.3881 23.6948 86.7173 24.4773 86.7213 25.2946V37.672C86.7213 38.4927 86.3931 39.2798 85.8089 39.8601C85.2248 40.4404 84.4324 40.7664 83.6063 40.7664H80.1923C79.2221 49.1215 75.7496 56.995 70.2243 63.3677L126.793 87.7909C127.378 88.0417 127.871 88.4649 128.206 89.0034C128.541 89.5418 128.701 90.1694 128.665 90.8013C128.629 91.4333 128.399 92.039 128.005 92.5366C127.611 93.0342 127.073 93.3996 126.464 93.5835L126.444 93.5736Z" fill="#9E9E9E"/>
</g>
</g>
</g>
<defs>
<clipPath id="clip0">
<rect width="151" height="150" fill="white"/>
</clipPath>
</defs>
</svg>
